# xmcd
#
# Track frame offsets: 
#        150
#        13128
#        27256
#        49196
#        63351
#        75940
#        88135
#        102103
#        114971
#        130387
#
# Disc length: 1854 seconds
#
# Revision: 0
# Processed by: cddbd v1.5.2PL0 Copyright (c) Steve Scherf et al.
# Submitted via: ExactAudioCopy v1.0b3
#
DISCID=76073c0a
DTITLE=Roy Clark - Greatest Hits
DYEAR=1986
DGENRE=Country
TTITLE0=Somewhere My Love
TTITLE1=Twilight Time
TTITLE2=Vaya Con Dios
TTITLE3=Gentle On My Mind
TTITLE4=Love Me Tender
TTITLE5=Sleepy Time Gal
TTITLE6=El Condor Pasa
TTITLE7=(Ghost) Riders In The Sky
TTITLE8=Maria Elena
TTITLE9=Black Sapphire
EXTD=
EXTT0=
EXTT1=
EXTT2=
EXTT3=
EXTT4=
EXTT5=
EXTT6=
EXTT7=
EXTT8=
EXTT9=
PLAYORDER=
